<svg width="398" height="47" viewBox="0 0 398 47" fill="none" xmlns="http://www.w3.org/2000/svg">
<path d="M182.153 42.8C182.153 43.6533 181.833 44.4 181.193 45.04C180.553 45.68 179.785 46 178.889 46C178.036 46 177.289 45.68 176.649 45.04C176.009 44.4 175.689 43.6533 175.689 42.8C175.689 41.904 176.009 41.136 176.649 40.496C177.289 39.856 178.036 39.536 178.889 39.536C179.785 39.536 180.553 39.856 181.193 40.496C181.833 41.136 182.153 41.904 182.153 42.8ZM189.742 1.2H197.678L205.038 32.176L212.206 1.2H220.334L209.198 46H200.942L189.742 1.2ZM242.633 46C238.025 46.4693 234.697 46.704 232.649 46.704C228.169 46.704 224.606 45.872 221.961 44.208C219.316 42.544 217.993 39.536 217.993 35.184V29.872C217.993 25.648 219.465 22.8107 222.409 21.36C223.817 20.6773 225.417 20.336 227.209 20.336C228.788 20.336 230.345 20.5493 231.881 20.976C233.417 21.4027 234.654 21.872 235.593 22.384C235.593 20.8053 234.953 19.7387 233.673 19.184C232.393 18.5867 230.75 18.288 228.745 18.288L229.321 13.424C233.417 13.424 236.425 14.0853 238.345 15.408C240.308 16.688 241.502 18.224 241.929 20.016C242.398 21.808 242.633 24.112 242.633 26.928V46ZM235.593 29.872C234.825 29.3173 233.737 28.8053 232.329 28.336C230.964 27.824 229.705 27.568 228.553 27.568C227.529 27.568 226.697 27.824 226.057 28.336C225.417 28.848 225.097 29.6587 225.097 30.768V34.288C225.097 38.1707 227.38 40.112 231.945 40.112C233.268 40.112 234.484 40.0053 235.593 39.792V29.872ZM267.85 45.616C265.204 46.2987 262.644 46.64 260.17 46.64C257.866 46.64 255.946 46.384 254.41 45.872C251.892 45.0187 250.058 43.7173 248.906 41.968C247.796 40.176 247.242 37.68 247.242 34.48V26.288C247.242 22.064 248.351 18.864 250.57 16.688C252.788 14.4693 255.647 13.36 259.146 13.36C261.919 13.36 264.778 14.0427 267.722 15.408L265.802 21.488C263.754 20.6773 261.919 20.272 260.298 20.272C258.378 20.272 256.884 20.8053 255.818 21.872C254.794 22.9387 254.282 24.2827 254.282 25.904V35.184C254.282 36.8053 254.858 37.9573 256.01 38.64C257.162 39.3227 258.634 39.664 260.426 39.664C261.45 39.664 262.474 39.5573 263.498 39.344C264.522 39.1307 265.332 38.9173 265.93 38.704L267.85 45.616ZM278.27 8.112C277.246 8.112 276.35 7.728 275.582 6.96C274.814 6.192 274.43 5.296 274.43 4.272C274.43 3.29067 274.814 2.43733 275.582 1.712C276.35 0.943998 277.246 0.559998 278.27 0.559998C279.251 0.559998 280.104 0.943998 280.83 1.712C281.598 2.43733 281.982 3.29067 281.982 4.272C281.982 5.296 281.598 6.192 280.83 6.96C280.104 7.728 279.251 8.112 278.27 8.112ZM274.558 13.936H281.598V46H274.558V13.936ZM307.797 25.84C307.797 24.1333 307.306 22.768 306.325 21.744C305.386 20.6773 304.106 20.144 302.485 20.144C301.162 20.144 299.733 20.528 298.197 21.296V46H291.221V13.936H297.429L298.261 14.32C300.053 13.7227 301.909 13.424 303.829 13.424C305.962 13.424 307.818 13.808 309.397 14.576C311.104 15.344 312.426 16.496 313.365 18.032C314.346 19.568 314.837 21.5093 314.837 23.856V46H307.797V25.84ZM346.133 46C341.525 46.4693 338.197 46.704 336.149 46.704C331.669 46.704 328.106 45.872 325.461 44.208C322.816 42.544 321.493 39.536 321.493 35.184V29.872C321.493 25.648 322.965 22.8107 325.909 21.36C327.317 20.6773 328.917 20.336 330.709 20.336C332.288 20.336 333.845 20.5493 335.381 20.976C336.917 21.4027 338.154 21.872 339.093 22.384C339.093 20.8053 338.453 19.7387 337.173 19.184C335.893 18.5867 334.25 18.288 332.245 18.288L332.821 13.424C336.917 13.424 339.925 14.0853 341.845 15.408C343.808 16.688 345.002 18.224 345.429 20.016C345.898 21.808 346.133 24.112 346.133 26.928V46ZM339.093 29.872C338.325 29.3173 337.237 28.8053 335.829 28.336C334.464 27.824 333.205 27.568 332.053 27.568C331.029 27.568 330.197 27.824 329.557 28.336C328.917 28.848 328.597 29.6587 328.597 30.768V34.288C328.597 38.1707 330.88 40.112 335.445 40.112C336.768 40.112 337.984 40.0053 339.093 39.792V29.872ZM352.342 13.936H358.87L359.382 14.192C361.131 13.5947 362.774 13.296 364.31 13.296C365.376 13.296 366.934 13.5093 368.982 13.936L370.262 14.192L368.598 21.04C367.403 20.4427 366.23 20.144 365.078 20.144C363.499 20.144 362.155 20.6347 361.046 21.616C359.936 22.5547 359.382 23.8133 359.382 25.392V46H352.342V13.936ZM380.75 32.432C380.75 29.6587 381.219 27.3333 382.158 25.456C383.139 23.5787 384.526 21.5733 386.318 19.44C387.427 18.0747 388.238 17.008 388.75 16.24C389.603 14.832 390.03 13.5093 390.03 12.272C390.03 10.864 389.561 9.69067 388.622 8.752C387.726 7.81333 386.745 7.344 385.678 7.344C384.014 7.344 382.777 7.77066 381.966 8.624C381.155 9.47733 380.75 10.5867 380.75 11.952H373.582C373.582 9.904 374.009 8.02666 374.862 6.32C375.715 4.57067 376.995 3.184 378.702 2.16C380.451 1.136 382.542 0.623997 384.974 0.623997C387.15 0.623997 389.177 1.17866 391.054 2.288C392.931 3.35466 394.425 4.80533 395.534 6.64C396.643 8.47467 397.198 10.416 397.198 12.464C397.198 14.896 396.473 17.136 395.022 19.184C394.211 20.2933 393.123 21.5947 391.758 23.088C390.734 24.1973 389.966 25.136 389.454 25.904C388.985 26.6293 388.579 27.6747 388.238 29.04C387.897 30.3627 387.726 32.1333 387.726 34.352C387.726 34.352 387.726 35.1413 387.726 36.72V38.384H380.75V32.432ZM387.406 42.8C387.406 43.6533 387.086 44.4 386.446 45.04C385.806 45.68 385.038 46 384.142 46C383.289 46 382.542 45.68 381.902 45.04C381.262 44.4 380.942 43.6533 380.942 42.8C380.942 41.904 381.262 41.136 381.902 40.496C382.542 39.856 383.289 39.536 384.142 39.536C385.038 39.536 385.806 39.856 386.446 40.496C387.086 41.136 387.406 41.904 387.406 42.8Z" fill="black"/>
<path d="M5.4295 1.2H13.3655L20.7255 32.176L27.8935 1.2H36.0215L24.8855 46H16.6295L5.4295 1.2ZM58.3205 46C53.7125 46.4693 50.3845 46.704 48.3365 46.704C43.8565 46.704 40.2938 45.872 37.6485 44.208C35.0032 42.544 33.6805 39.536 33.6805 35.184V29.872C33.6805 25.648 35.1525 22.8107 38.0965 21.36C39.5045 20.6773 41.1045 20.336 42.8965 20.336C44.4752 20.336 46.0325 20.5493 47.5685 20.976C49.1045 21.4027 50.3418 21.872 51.2805 22.384C51.2805 20.8053 50.6405 19.7387 49.3605 19.184C48.0805 18.5867 46.4378 18.288 44.4325 18.288L45.0085 13.424C49.1045 13.424 52.1125 14.0853 54.0325 15.408C55.9952 16.688 57.1898 18.224 57.6165 20.016C58.0858 21.808 58.3205 24.112 58.3205 26.928V46ZM51.2805 29.872C50.5125 29.3173 49.4245 28.8053 48.0165 28.336C46.6512 27.824 45.3925 27.568 44.2405 27.568C43.2165 27.568 42.3845 27.824 41.7445 28.336C41.1045 28.848 40.7845 29.6587 40.7845 30.768V34.288C40.7845 38.1707 43.0672 40.112 47.6325 40.112C48.9552 40.112 50.1712 40.0053 51.2805 39.792V29.872ZM98.513 26.544C98.513 24.24 98.193 22.576 97.553 21.552C96.9557 20.528 95.9743 20.016 94.609 20.016C93.6277 20.016 92.305 20.3147 90.641 20.912L89.553 21.36C89.6383 21.616 89.7023 21.9147 89.745 22.256C89.7877 22.5973 89.809 22.9173 89.809 23.216V46H82.769V26.736C82.769 24.6027 82.2783 22.96 81.297 21.808C80.3157 20.656 78.993 20.08 77.329 20.08C75.8357 20.08 74.2783 20.5493 72.657 21.488V46H65.617V13.936H71.825L72.657 14.384C74.065 13.744 75.665 13.424 77.457 13.424C78.9077 13.424 80.3157 13.68 81.681 14.192C83.0463 14.6613 84.241 15.4293 85.265 16.496C85.8623 16.1547 86.7583 15.6853 87.953 15.088C90.4703 13.936 92.9023 13.36 95.249 13.36C98.2783 13.36 100.753 14.2987 102.673 16.176C104.593 18.0107 105.553 20.5707 105.553 23.856V46H98.513V26.544ZM136.927 34.224C136.927 37.808 135.945 40.7733 133.983 43.12C132.02 45.4667 129.055 46.64 125.087 46.64C121.119 46.64 118.111 45.4667 116.062 43.12C114.057 40.7307 113.055 37.7653 113.055 34.224V25.776C113.055 21.7227 114.079 18.6293 116.127 16.496C118.217 14.32 121.204 13.232 125.087 13.232C128.799 13.232 131.7 14.3627 133.791 16.624C135.881 18.8427 136.927 21.8933 136.927 25.776V34.224ZM129.951 25.776C129.951 23.5147 129.481 22.0427 128.543 21.36C127.604 20.6773 126.452 20.336 125.087 20.336C121.759 20.336 120.095 22.1493 120.095 25.776V34.864C120.095 36.5707 120.564 37.808 121.503 38.576C122.441 39.344 123.636 39.728 125.087 39.728C126.495 39.728 127.647 39.3227 128.543 38.512C129.481 37.7013 129.951 36.4853 129.951 34.864V25.776ZM148.782 37.168C148.782 37.936 149.166 38.6613 149.934 39.344C150.744 40.0267 151.96 40.368 153.582 40.368C154.99 40.368 156.078 40.0267 156.846 39.344C157.614 38.6187 157.998 37.7867 157.998 36.848C157.998 35.5253 157.507 34.544 156.526 33.904C155.587 33.264 154.051 32.56 151.918 31.792C150.083 31.1947 148.568 30.5973 147.374 30C146.179 29.4027 145.112 28.5067 144.174 27.312C143.235 26.1173 142.68 24.56 142.51 22.64C142.382 21.1893 142.659 19.7387 143.342 18.288C144.067 16.7947 145.262 15.5787 146.926 14.64C148.632 13.6587 150.808 13.168 153.454 13.168C154.819 13.168 156.014 13.3173 157.038 13.616C158.104 13.872 158.936 14.1493 159.534 14.448C160.131 14.7467 160.494 14.9387 160.622 15.024L158.574 21.552C158.488 21.4667 158.254 21.3173 157.87 21.104C157.528 20.848 156.974 20.6133 156.206 20.4C155.438 20.1867 154.52 20.08 153.454 20.08C151.15 20.08 149.998 20.72 149.998 22C149.998 22.256 150.04 22.512 150.126 22.768C150.254 23.3653 150.702 23.8773 151.47 24.304C152.238 24.688 153.368 25.1573 154.862 25.712C156.952 26.48 158.702 27.248 160.11 28.016C161.56 28.7413 162.798 29.8507 163.822 31.344C164.888 32.7947 165.422 34.672 165.422 36.976C165.422 38.7253 164.995 40.368 164.142 41.904C163.288 43.3973 161.966 44.6133 160.174 45.552C158.424 46.4907 156.227 46.96 153.582 46.96C151.15 46.96 149.038 46.5547 147.246 45.744C145.496 44.8907 144.152 43.7813 143.214 42.416C142.318 41.0507 141.827 39.536 141.742 37.872L148.782 37.168Z" fill="#06ADEF"/>
</svg>
