<svg width="356" height="39" viewBox="0 0 356 39" fill="none" xmlns="http://www.w3.org/2000/svg">
<path d="M13.4694 22.2H7.62938V30H3.22938V2H12.7094C14.4694 2 15.936 2.44 17.1094 3.32C18.2827 4.17333 19.1494 5.32 19.7094 6.76C20.296 8.2 20.5894 9.78667 20.5894 11.52C20.5894 12.8267 20.536 13.96 20.4294 14.92C20.3227 15.88 20.0427 16.88 19.5894 17.92C19.1627 18.96 18.4694 19.8933 17.5094 20.72L20.6294 30H16.1494L13.4694 22.2ZM11.6694 18C12.976 18 13.936 17.6667 14.5494 17C15.1894 16.3067 15.576 15.52 15.7094 14.64C15.8694 13.76 15.9494 12.72 15.9494 11.52C15.9494 10.1067 15.7494 9.04 15.3494 8.32C14.9494 7.57333 14.3894 7.08 13.6694 6.84C12.9494 6.57333 12.016 6.44 10.8694 6.44H7.62938V18H11.6694ZM28.5275 24.04C28.5275 24.7867 28.7275 25.3733 29.1275 25.8C29.5542 26.2 30.1675 26.4 30.9675 26.4C32.1942 26.4 33.8342 25.8667 35.8875 24.8L37.4875 28.6C36.5275 29.2133 35.4342 29.68 34.2075 30C32.9808 30.32 31.7542 30.48 30.5275 30.48C28.5542 30.48 26.9808 30 25.8075 29.04C24.6608 28.0533 24.0875 26.5867 24.0875 24.64V16.44C24.0875 14.28 24.7542 12.6 26.0875 11.4C27.4475 10.2 29.2342 9.6 31.4475 9.6C33.6608 9.6 35.3808 10.2 36.6075 11.4C37.8608 12.5733 38.4875 14.2133 38.4875 16.32V22.4L28.5275 22.92V24.04ZM34.0475 16.4C34.0475 15.6 33.7942 14.9867 33.2875 14.56C32.7808 14.1333 32.1542 13.92 31.4075 13.92C30.3942 13.92 29.6608 14.1867 29.2075 14.72C28.7542 15.2533 28.5275 15.84 28.5275 16.48V18.88L34.0475 18.52V16.4ZM56.9113 30C54.0313 30.2933 51.9513 30.44 50.6713 30.44C47.8713 30.44 45.6446 29.92 43.9913 28.88C42.3379 27.84 41.5113 25.96 41.5113 23.24V19.92C41.5113 17.28 42.4313 15.5067 44.2713 14.6C45.1513 14.1733 46.1513 13.96 47.2713 13.96C48.2579 13.96 49.2313 14.0933 50.1913 14.36C51.1513 14.6267 51.9246 14.92 52.5113 15.24C52.5113 14.2533 52.1113 13.5867 51.3113 13.24C50.5113 12.8667 49.4846 12.68 48.2313 12.68L48.5913 9.64C51.1513 9.64 53.0313 10.0533 54.2313 10.88C55.4579 11.68 56.2046 12.64 56.4713 13.76C56.7646 14.88 56.9113 16.32 56.9113 18.08V30ZM52.5113 19.92C52.0313 19.5733 51.3513 19.2533 50.4713 18.96C49.6179 18.64 48.8313 18.48 48.1113 18.48C47.4713 18.48 46.9513 18.64 46.5513 18.96C46.1513 19.28 45.9513 19.7867 45.9513 20.48V22.68C45.9513 25.1067 47.3779 26.32 50.2313 26.32C51.0579 26.32 51.8179 26.2533 52.5113 26.12V19.92ZM61.4716 2H65.8716V30H61.4716V2ZM74.5747 6.32C73.9347 6.32 73.3747 6.08 72.8947 5.6C72.4147 5.12 72.1747 4.56 72.1747 3.92C72.1747 3.30667 72.4147 2.77333 72.8947 2.32C73.3747 1.84 73.9347 1.6 74.5747 1.6C75.188 1.6 75.7214 1.84 76.1747 2.32C76.6547 2.77333 76.8947 3.30667 76.8947 3.92C76.8947 4.56 76.6547 5.12 76.1747 5.6C75.7214 6.08 75.188 6.32 74.5747 6.32ZM72.2547 9.96H76.6547V30H72.2547V9.96ZM83.2294 25.84L91.5894 14.12H83.5894V9.96H97.5094V13.96L89.1094 25.84H97.9094V30H83.2294V25.84ZM116.364 30C113.484 30.2933 111.404 30.44 110.124 30.44C107.324 30.44 105.098 29.92 103.444 28.88C101.791 27.84 100.964 25.96 100.964 23.24V19.92C100.964 17.28 101.884 15.5067 103.724 14.6C104.604 14.1733 105.604 13.96 106.724 13.96C107.711 13.96 108.684 14.0933 109.644 14.36C110.604 14.6267 111.378 14.92 111.964 15.24C111.964 14.2533 111.564 13.5867 110.764 13.24C109.964 12.8667 108.938 12.68 107.684 12.68L108.044 9.64C110.604 9.64 112.484 10.0533 113.684 10.88C114.911 11.68 115.658 12.64 115.924 13.76C116.218 14.88 116.364 16.32 116.364 18.08V30ZM111.964 19.92C111.484 19.5733 110.804 19.2533 109.924 18.96C109.071 18.64 108.284 18.48 107.564 18.48C106.924 18.48 106.404 18.64 106.004 18.96C105.604 19.28 105.404 19.7867 105.404 20.48V22.68C105.404 25.1067 106.831 26.32 109.684 26.32C110.511 26.32 111.271 26.2533 111.964 26.12V19.92ZM120.245 9.96H124.325L124.645 10.12C125.738 9.74667 126.765 9.56 127.725 9.56C128.391 9.56 129.365 9.69333 130.645 9.96L131.445 10.12L130.405 14.4C129.658 14.0267 128.925 13.84 128.205 13.84C127.218 13.84 126.378 14.1467 125.685 14.76C124.991 15.3467 124.645 16.1333 124.645 17.12V30H120.245V9.96Z" fill="#06ADEF"/>
<path d="M161.943 30C159.063 30.2933 156.983 30.44 155.703 30.44C152.903 30.44 150.676 29.92 149.023 28.88C147.369 27.84 146.543 25.96 146.543 23.24V19.92C146.543 17.28 147.463 15.5067 149.303 14.6C150.183 14.1733 151.183 13.96 152.303 13.96C153.289 13.96 154.263 14.0933 155.223 14.36C156.183 14.6267 156.956 14.92 157.543 15.24C157.543 14.2533 157.143 13.5867 156.343 13.24C155.543 12.8667 154.516 12.68 153.263 12.68L153.623 9.64C156.183 9.64 158.063 10.0533 159.263 10.88C160.489 11.68 161.236 12.64 161.503 13.76C161.796 14.88 161.943 16.32 161.943 18.08V30ZM157.543 19.92C157.063 19.5733 156.383 19.2533 155.503 18.96C154.649 18.64 153.863 18.48 153.143 18.48C152.503 18.48 151.983 18.64 151.583 18.96C151.183 19.28 150.983 19.7867 150.983 20.48V22.68C150.983 25.1067 152.409 26.32 155.263 26.32C156.089 26.32 156.849 26.2533 157.543 26.12V19.92ZM173.404 34.96C174.311 34.96 175.017 34.6933 175.524 34.16C176.057 33.6533 176.324 32.88 176.324 31.84V29.68C176.111 29.84 175.724 30.0133 175.164 30.2C174.631 30.3867 173.937 30.48 173.084 30.48C170.737 30.48 168.911 29.84 167.604 28.56C166.297 27.28 165.644 25.4133 165.644 22.96V17C165.644 14.6533 166.324 12.84 167.684 11.56C169.071 10.2533 170.924 9.6 173.244 9.6C173.991 9.6 174.657 9.69333 175.244 9.88C175.831 10.04 176.204 10.2133 176.364 10.4L177.204 9.96H180.724V32.56C180.724 36.4533 178.631 38.4 174.444 38.4L173.404 34.96ZM176.324 17.4C176.324 16.3333 176.084 15.4933 175.604 14.88C175.124 14.2667 174.284 13.96 173.084 13.96C171.991 13.96 171.204 14.28 170.724 14.92C170.271 15.5333 170.044 16.2933 170.044 17.2V22.36C170.044 24.9467 171.057 26.24 173.084 26.24C174.391 26.24 175.257 25.8133 175.684 24.96C176.111 24.1067 176.324 22.7067 176.324 20.76V17.4ZM189.145 24.04C189.145 24.7867 189.345 25.3733 189.745 25.8C190.171 26.2 190.785 26.4 191.585 26.4C192.811 26.4 194.451 25.8667 196.505 24.8L198.105 28.6C197.145 29.2133 196.051 29.68 194.825 30C193.598 30.32 192.371 30.48 191.145 30.48C189.171 30.48 187.598 30 186.425 29.04C185.278 28.0533 184.705 26.5867 184.705 24.64V16.44C184.705 14.28 185.371 12.6 186.705 11.4C188.065 10.2 189.851 9.6 192.065 9.6C194.278 9.6 195.998 10.2 197.225 11.4C198.478 12.5733 199.105 14.2133 199.105 16.32V22.4L189.145 22.92V24.04ZM194.665 16.4C194.665 15.6 194.411 14.9867 193.905 14.56C193.398 14.1333 192.771 13.92 192.025 13.92C191.011 13.92 190.278 14.1867 189.825 14.72C189.371 15.2533 189.145 15.84 189.145 16.48V18.88L194.665 18.52V16.4ZM213.568 17.4C213.568 16.3333 213.262 15.48 212.648 14.84C212.062 14.1733 211.262 13.84 210.248 13.84C209.422 13.84 208.528 14.08 207.568 14.56V30H203.208V9.96H207.088L207.608 10.2C208.728 9.82667 209.888 9.64 211.088 9.64C212.422 9.64 213.582 9.88 214.568 10.36C215.635 10.84 216.462 11.56 217.048 12.52C217.662 13.48 217.968 14.6933 217.968 16.16V30H213.568V17.4ZM223.768 16.16C223.768 13.36 224.902 11.44 227.168 10.4C228.262 9.86667 229.542 9.6 231.008 9.6C232.262 9.6 233.315 9.76 234.168 10.08V2H238.528V30L236.328 30.2C234.595 30.3867 233.235 30.48 232.248 30.48C231.262 30.48 230.328 30.3867 229.448 30.2C228.595 30.0133 227.742 29.7067 226.888 29.28C225.928 28.8 225.168 28.0933 224.608 27.16C224.048 26.2267 223.768 25.08 223.768 23.72V16.16ZM234.168 14.72C233.208 14.2667 232.315 14.04 231.488 14.04C230.528 14.04 229.728 14.3467 229.088 14.96C228.448 15.5733 228.128 16.5067 228.128 17.76V24C228.128 24.6933 228.502 25.2667 229.248 25.72C229.995 26.1733 230.942 26.4 232.088 26.4C232.808 26.4 233.502 26.3067 234.168 26.12V14.72ZM256.982 30C254.102 30.2933 252.022 30.44 250.742 30.44C247.942 30.44 245.715 29.92 244.062 28.88C242.408 27.84 241.582 25.96 241.582 23.24V19.92C241.582 17.28 242.502 15.5067 244.342 14.6C245.222 14.1733 246.222 13.96 247.342 13.96C248.328 13.96 249.302 14.0933 250.262 14.36C251.222 14.6267 251.995 14.92 252.582 15.24C252.582 14.2533 252.182 13.5867 251.382 13.24C250.582 12.8667 249.555 12.68 248.302 12.68L248.662 9.64C251.222 9.64 253.102 10.0533 254.302 10.88C255.528 11.68 256.275 12.64 256.542 13.76C256.835 14.88 256.982 16.32 256.982 18.08V30ZM252.582 19.92C252.102 19.5733 251.422 19.2533 250.542 18.96C249.688 18.64 248.902 18.48 248.182 18.48C247.542 18.48 247.022 18.64 246.622 18.96C246.222 19.28 246.022 19.7867 246.022 20.48V22.68C246.022 25.1067 247.448 26.32 250.302 26.32C251.128 26.32 251.888 26.2533 252.582 26.12V19.92ZM282.102 17.84C282.102 16.4 281.902 15.36 281.502 14.72C281.129 14.08 280.515 13.76 279.662 13.76C279.049 13.76 278.222 13.9467 277.182 14.32L276.502 14.6C276.555 14.76 276.595 14.9467 276.622 15.16C276.649 15.3733 276.662 15.5733 276.662 15.76V30H272.262V17.96C272.262 16.6267 271.955 15.6 271.342 14.88C270.729 14.16 269.902 13.8 268.862 13.8C267.929 13.8 266.955 14.0933 265.942 14.68V30H261.542V9.96H265.422L265.942 10.24C266.822 9.84 267.822 9.64 268.942 9.64C269.849 9.64 270.729 9.8 271.582 10.12C272.435 10.4133 273.182 10.8933 273.822 11.56C274.195 11.3467 274.755 11.0533 275.502 10.68C277.075 9.96 278.595 9.6 280.062 9.6C281.955 9.6 283.502 10.1867 284.702 11.36C285.902 12.5067 286.502 14.1067 286.502 16.16V30H282.102V17.84ZM293.91 24.04C293.91 24.7867 294.11 25.3733 294.51 25.8C294.937 26.2 295.55 26.4 296.35 26.4C297.577 26.4 299.217 25.8667 301.27 24.8L302.87 28.6C301.91 29.2133 300.817 29.68 299.59 30C298.364 30.32 297.137 30.48 295.91 30.48C293.937 30.48 292.364 30 291.19 29.04C290.044 28.0533 289.47 26.5867 289.47 24.64V16.44C289.47 14.28 290.137 12.6 291.47 11.4C292.83 10.2 294.617 9.6 296.83 9.6C299.044 9.6 300.764 10.2 301.99 11.4C303.244 12.5733 303.87 14.2133 303.87 16.32V22.4L293.91 22.92V24.04ZM299.43 16.4C299.43 15.6 299.177 14.9867 298.67 14.56C298.164 14.1333 297.537 13.92 296.79 13.92C295.777 13.92 295.044 14.1867 294.59 14.72C294.137 15.2533 293.91 15.84 293.91 16.48V18.88L299.43 18.52V16.4ZM318.334 17.4C318.334 16.3333 318.027 15.48 317.414 14.84C316.827 14.1733 316.027 13.84 315.014 13.84C314.187 13.84 313.294 14.08 312.334 14.56V30H307.974V9.96H311.854L312.374 10.2C313.494 9.82667 314.654 9.64 315.854 9.64C317.187 9.64 318.347 9.88 319.334 10.36C320.401 10.84 321.227 11.56 321.814 12.52C322.427 13.48 322.734 14.6933 322.734 16.16V30H318.334V17.4ZM333.254 30.52C329.201 30.44 327.174 28.5067 327.174 24.72V2H331.654V9.96H335.454L334.494 14.08H331.654V24.72C331.654 25.6267 331.907 26.24 332.414 26.56C332.921 26.8533 333.641 27 334.574 27L333.254 30.52ZM354.431 22.64C354.431 24.88 353.817 26.7333 352.591 28.2C351.364 29.6667 349.511 30.4 347.031 30.4C344.551 30.4 342.671 29.6667 341.391 28.2C340.137 26.7067 339.511 24.8533 339.511 22.64V17.36C339.511 14.8267 340.151 12.8933 341.431 11.56C342.737 10.2 344.604 9.52 347.031 9.52C349.351 9.52 351.164 10.2267 352.471 11.64C353.777 13.0267 354.431 14.9333 354.431 17.36V22.64ZM350.071 17.36C350.071 15.9467 349.777 15.0267 349.191 14.6C348.604 14.1733 347.884 13.96 347.031 13.96C344.951 13.96 343.911 15.0933 343.911 17.36V23.04C343.911 24.1067 344.204 24.88 344.791 25.36C345.377 25.84 346.124 26.08 347.031 26.08C347.911 26.08 348.631 25.8267 349.191 25.32C349.777 24.8133 350.071 24.0533 350.071 23.04V17.36Z" fill="black"/>
</svg>
