<svg width="370" height="47" viewBox="0 0 370 47" fill="none" xmlns="http://www.w3.org/2000/svg">
<path d="M3.97838 1.4H9.93038L15.4504 24.632L20.8264 1.4H26.9224L18.5704 35H12.3784L3.97838 1.4ZM43.6466 35C40.1906 35.352 37.6946 35.528 36.1586 35.528C32.7986 35.528 30.1266 34.904 28.1426 33.656C26.1586 32.408 25.1666 30.152 25.1666 26.888V22.904C25.1666 19.736 26.2706 17.608 28.4786 16.52C29.5346 16.008 30.7346 15.752 32.0786 15.752C33.2626 15.752 34.4306 15.912 35.5826 16.232C36.7346 16.552 37.6626 16.904 38.3666 17.288C38.3666 16.104 37.8866 15.304 36.9266 14.888C35.9666 14.44 34.7346 14.216 33.2306 14.216L33.6626 10.568C36.7346 10.568 38.9906 11.064 40.4306 12.056C41.9026 13.016 42.7986 14.168 43.1186 15.512C43.4706 16.856 43.6466 18.584 43.6466 20.696V35ZM38.3666 22.904C37.7906 22.488 36.9746 22.104 35.9186 21.752C34.8946 21.368 33.9506 21.176 33.0866 21.176C32.3186 21.176 31.6946 21.368 31.2146 21.752C30.7346 22.136 30.4946 22.744 30.4946 23.576V26.216C30.4946 29.128 32.2066 30.584 35.6306 30.584C36.6226 30.584 37.5346 30.504 38.3666 30.344V22.904ZM62.559 34.712C60.575 35.224 58.655 35.48 56.799 35.48C55.071 35.48 53.631 35.288 52.479 34.904C50.591 34.264 49.215 33.288 48.351 31.976C47.519 30.632 47.103 28.76 47.103 26.36V20.216C47.103 17.048 47.935 14.648 49.599 13.016C51.263 11.352 53.407 10.52 56.031 10.52C58.111 10.52 60.255 11.032 62.463 12.056L61.023 16.616C59.487 16.008 58.111 15.704 56.895 15.704C55.455 15.704 54.335 16.104 53.535 16.904C52.767 17.704 52.383 18.712 52.383 19.928V26.888C52.383 28.104 52.815 28.968 53.679 29.48C54.543 29.992 55.647 30.248 56.991 30.248C57.759 30.248 58.527 30.168 59.295 30.008C60.063 29.848 60.671 29.688 61.119 29.528L62.559 34.712ZM70.374 6.584C69.606 6.584 68.934 6.296 68.358 5.72C67.782 5.144 67.494 4.472 67.494 3.704C67.494 2.968 67.782 2.328 68.358 1.784C68.934 1.208 69.606 0.919998 70.374 0.919998C71.11 0.919998 71.75 1.208 72.294 1.784C72.87 2.328 73.158 2.968 73.158 3.704C73.158 4.472 72.87 5.144 72.294 5.72C71.75 6.296 71.11 6.584 70.374 6.584ZM67.59 10.952H72.87V35H67.59V10.952ZM92.5196 19.88C92.5196 18.6 92.1516 17.576 91.4156 16.808C90.7116 16.008 89.7516 15.608 88.5356 15.608C87.5436 15.608 86.4716 15.896 85.3196 16.472V35H80.0876V10.952H84.7436L85.3676 11.24C86.7116 10.792 88.1036 10.568 89.5436 10.568C91.1436 10.568 92.5356 10.856 93.7196 11.432C94.9996 12.008 95.9916 12.872 96.6956 14.024C97.4316 15.176 97.7996 16.632 97.7996 18.392V35H92.5196V19.88ZM121.272 35C117.816 35.352 115.32 35.528 113.784 35.528C110.424 35.528 107.752 34.904 105.768 33.656C103.784 32.408 102.792 30.152 102.792 26.888V22.904C102.792 19.736 103.896 17.608 106.104 16.52C107.16 16.008 108.36 15.752 109.704 15.752C110.888 15.752 112.056 15.912 113.208 16.232C114.36 16.552 115.288 16.904 115.992 17.288C115.992 16.104 115.512 15.304 114.552 14.888C113.592 14.44 112.36 14.216 110.856 14.216L111.288 10.568C114.36 10.568 116.616 11.064 118.056 12.056C119.528 13.016 120.424 14.168 120.744 15.512C121.096 16.856 121.272 18.584 121.272 20.696V35ZM115.992 22.904C115.416 22.488 114.6 22.104 113.544 21.752C112.52 21.368 111.576 21.176 110.712 21.176C109.944 21.176 109.32 21.368 108.84 21.752C108.36 22.136 108.12 22.744 108.12 23.576V26.216C108.12 29.128 109.832 30.584 113.256 30.584C114.248 30.584 115.16 30.504 115.992 30.344V22.904ZM128.904 41.624C129.704 42.168 130.36 42.504 130.872 42.632C131.384 42.76 131.976 42.824 132.648 42.824C133.416 42.824 134.088 42.664 134.664 42.344C135.24 42.056 135.528 41.576 135.528 40.904C135.528 40.488 135.384 40.152 135.096 39.896C134.84 39.64 134.472 39.512 133.992 39.512C133.448 39.512 132.76 39.704 131.928 40.088L129.816 41.144L128.136 38.744L130.968 35.144L130.104 34.904C128.216 34.264 126.84 33.288 125.976 31.976C125.144 30.632 124.728 28.76 124.728 26.36V20.216C124.728 17.048 125.56 14.648 127.224 13.016C128.888 11.352 131.032 10.52 133.656 10.52C135.736 10.52 137.88 11.032 140.088 12.056L138.648 16.616C137.112 16.008 135.736 15.704 134.52 15.704C133.08 15.704 131.96 16.104 131.16 16.904C130.392 17.704 130.008 18.712 130.008 19.928V26.888C130.008 28.104 130.44 28.968 131.304 29.48C132.168 29.992 133.272 30.248 134.616 30.248C135.384 30.248 136.152 30.168 136.92 30.008C137.688 29.848 138.296 29.688 138.744 29.528L140.184 34.712C138.04 35.256 135.992 35.512 134.04 35.48L133.128 36.824C133.736 36.6 134.28 36.488 134.76 36.488C135.848 36.488 136.808 36.872 137.64 37.64C138.472 38.44 138.888 39.528 138.888 40.904C138.888 42.12 138.536 43.112 137.832 43.88C137.128 44.68 136.248 45.256 135.192 45.608C134.168 45.96 133.16 46.136 132.168 46.136C130.728 46.136 129.096 45.8 127.272 45.128L128.904 41.624ZM163.167 6.584C161.791 8.248 160.319 9.08 158.751 9.08C158.207 9.08 157.679 9 157.167 8.84C156.655 8.68 155.983 8.424 155.151 8.072C154.415 7.752 153.791 7.512 153.279 7.352C152.767 7.16 152.239 7.064 151.695 7.064C150.511 7.064 149.343 7.656 148.191 8.84L146.319 5.72C147.759 4.056 149.279 3.224 150.879 3.224C151.455 3.224 151.999 3.304 152.511 3.464C153.023 3.624 153.695 3.88 154.527 4.232C155.359 4.552 155.999 4.792 156.447 4.952C156.895 5.08 157.359 5.144 157.839 5.144C159.023 5.144 160.127 4.584 161.151 3.464L163.167 6.584ZM163.599 35C160.143 35.352 157.647 35.528 156.111 35.528C152.751 35.528 150.079 34.904 148.095 33.656C146.111 32.408 145.119 30.152 145.119 26.888V22.904C145.119 19.736 146.223 17.608 148.431 16.52C149.487 16.008 150.687 15.752 152.031 15.752C153.215 15.752 154.383 15.912 155.535 16.232C156.687 16.552 157.615 16.904 158.319 17.288C158.319 16.104 157.839 15.304 156.879 14.888C155.919 14.44 154.687 14.216 153.183 14.216L153.615 10.568C156.687 10.568 158.943 11.064 160.383 12.056C161.855 13.016 162.751 14.168 163.071 15.512C163.423 16.856 163.599 18.584 163.599 20.696V35ZM158.319 22.904C157.743 22.488 156.927 22.104 155.871 21.752C154.847 21.368 153.903 21.176 153.039 21.176C152.271 21.176 151.647 21.368 151.167 21.752C150.687 22.136 150.447 22.744 150.447 23.576V26.216C150.447 29.128 152.159 30.584 155.583 30.584C156.575 30.584 157.487 30.504 158.319 30.344V22.904ZM187.117 26.168C187.117 28.856 186.381 31.08 184.909 32.84C183.437 34.6 181.213 35.48 178.237 35.48C175.261 35.48 173.005 34.6 171.469 32.84C169.965 31.048 169.213 28.824 169.213 26.168V19.832C169.213 16.792 169.981 14.472 171.517 12.872C173.085 11.24 175.325 10.424 178.237 10.424C181.021 10.424 183.197 11.272 184.765 12.968C186.333 14.632 187.117 16.92 187.117 19.832V26.168ZM181.885 19.832C181.885 18.136 181.533 17.032 180.829 16.52C180.125 16.008 179.261 15.752 178.237 15.752C175.741 15.752 174.493 17.112 174.493 19.832V26.648C174.493 27.928 174.845 28.856 175.549 29.432C176.253 30.008 177.149 30.296 178.237 30.296C179.293 30.296 180.157 29.992 180.829 29.384C181.533 28.776 181.885 27.864 181.885 26.648V19.832Z" fill="black"/>
<path d="M220.762 33.896C217.914 34.952 215.258 35.48 212.794 35.48C210.01 35.48 207.754 34.744 206.026 33.272C204.298 31.8 203.434 29.448 203.434 26.216V10.808C203.434 8.376 203.77 6.536 204.442 5.288C205.146 4.04 206.202 2.984 207.61 2.12C209.018 1.32 210.746 0.919998 212.794 0.919998C215.29 0.919998 217.546 1.448 219.562 2.504L218.074 7.304C216.602 6.76 214.986 6.488 213.226 6.488C211.882 6.488 210.794 6.856 209.962 7.592C209.13 8.328 208.714 9.256 208.714 10.376V26.12C208.714 28.808 210.218 30.152 213.226 30.152C214.186 30.152 215.146 30.056 216.106 29.864C217.066 29.64 218.346 29.32 219.946 28.904L220.762 33.896ZM244.075 26.12C244.075 29.352 243.083 31.736 241.099 33.272C239.147 34.776 236.795 35.528 234.043 35.528C232.315 35.528 230.683 35.224 229.147 34.616C227.611 33.976 226.347 32.952 225.355 31.544C224.395 30.136 223.915 28.328 223.915 26.12V10.664C223.915 7.368 224.811 4.872 226.603 3.176C228.427 1.48 230.923 0.631999 234.091 0.631999C237.259 0.631999 239.707 1.528 241.435 3.32C243.195 5.112 244.075 7.576 244.075 10.712V26.12ZM238.795 12.44C238.795 11.096 238.683 9.992 238.459 9.128C238.235 8.264 237.771 7.592 237.067 7.112C236.363 6.6 235.339 6.344 233.995 6.344C232.651 6.344 231.627 6.584 230.923 7.064C230.219 7.544 229.755 8.216 229.531 9.08C229.307 9.912 229.195 11.016 229.195 12.392V25.208C229.195 26.744 229.579 27.96 230.347 28.856C231.147 29.72 232.363 30.152 233.995 30.152C235.499 30.152 236.667 29.688 237.499 28.76C238.363 27.832 238.795 26.616 238.795 25.112V12.44ZM249.244 1.4H255.196L260.716 24.632L266.092 1.4H272.188L263.836 35H257.644L249.244 1.4ZM279.951 6.584L276.975 6.488V1.4H285.231V35H279.951V6.584ZM292.838 1.352H301.862C305.478 1.352 308.23 2.344 310.118 4.328C312.038 6.312 312.998 8.952 312.998 12.248V25.4C312.998 31.8 309.606 35 302.822 35H292.838V1.352ZM307.718 11.768C307.718 10.008 307.27 8.728 306.374 7.928C305.51 7.096 304.166 6.68 302.342 6.68H298.118V30.152H302.054C303.782 30.152 305.158 29.896 306.182 29.384C307.206 28.84 307.718 27.672 307.718 25.88V11.768ZM318.91 15.176H334.27V20.216H318.91V15.176ZM342.534 8.744C342.022 8.968 341.302 9.144 340.374 9.272C339.478 9.368 338.886 9.432 338.598 9.464L337.062 4.856C337.062 4.888 337.398 4.808 338.07 4.616C338.742 4.392 339.478 4.024 340.278 3.512C341.078 3 341.83 2.296 342.534 1.4H347.814V35H342.486L342.534 8.744ZM356.023 30.152H357.895C359.943 30.152 361.495 29.448 362.551 28.04C363.639 26.6 364.183 24.712 364.183 22.376V19.832C364.087 19.896 363.799 20.088 363.319 20.408C362.871 20.696 362.311 20.92 361.639 21.08C360.967 21.24 360.167 21.32 359.239 21.32C357.383 21.32 355.671 20.872 354.103 19.976C352.535 19.048 351.287 17.816 350.359 16.28C349.463 14.712 349.015 13 349.015 11.144C349.015 9.288 349.463 7.576 350.359 6.008C351.287 4.44 352.535 3.208 354.103 2.312C355.671 1.384 357.383 0.919998 359.239 0.919998C361.095 0.919998 362.791 1.384 364.327 2.312C365.895 3.208 367.127 4.44 368.023 6.008C368.951 7.576 369.415 9.288 369.415 11.144V23.528C369.415 25.288 369.031 27.048 368.263 28.808C367.527 30.536 366.279 32.008 364.519 33.224C362.791 34.408 360.519 35 357.703 35H356.023V30.152ZM359.239 16.04C360.583 16.04 361.735 15.56 362.695 14.6C363.687 13.608 364.183 12.392 364.183 10.952C364.183 9.672 363.687 8.552 362.695 7.592C361.703 6.632 360.551 6.152 359.239 6.152C357.895 6.152 356.727 6.648 355.735 7.64C354.775 8.632 354.295 9.8 354.295 11.144C354.295 12.488 354.775 13.64 355.735 14.6C356.727 15.56 357.895 16.04 359.239 16.04Z" fill="#06ADEF"/>
</svg>
